<svg width="260" height="260" viewBox="0 0 260 260" fill="none" xmlns="http://www.w3.org/2000/svg">
<path d="M248.67 183.153C228.35 228.449 182.86 260 130 260C108.091 260 87.4485 254.58 69.3389 245.008L130.506 114.876L151.248 157.009L155.921 166.5H186.267L190.656 156.124L208.479 113.996L248.67 183.153ZM76.6787 149.467L41.2021 224.945C15.8472 201.222 0 167.462 0 130C0 107.821 5.55576 86.9411 15.3486 68.6719L76.6787 149.467ZM130 0C201.797 0 260 58.203 260 130C260 131.616 259.969 133.225 259.91 134.827L225.698 75.958L220.783 67.5H191.233L186.844 77.876L169.901 117.92L149.752 76.9912L145.079 67.5H115.206L110.615 77.2686L93.0029 114.737L36.2363 39.9551C59.8922 15.3285 93.1557 0 130 0Z" fill="url(#paint0_linear_177_1507)"/>
<defs>
<linearGradient id="paint0_linear_177_1507" x1="130" y1="260" x2="144" y2="13.5" gradientUnits="userSpaceOnUse">
<stop offset="0.32129" stop-color="#7D38EA"/>
<stop offset="1" stop-color="#AB40EF"/>
</linearGradient>
</defs>
</svg>
